<svg width="600" height="400" xmlns="http://www.w3.org/2000/svg">
  <defs>
    <linearGradient id="buzzGrad" x1="0%" y1="0%" x2="100%" y2="100%">
      <stop offset="0%" style="stop-color:#f4e4bc;stop-opacity:1" />
      <stop offset="100%" style="stop-color:#d4af37;stop-opacity:1" />
    </linearGradient>
    <radialGradient id="headGrad" cx="50%" cy="40%" r="60%">
      <stop offset="0%" style="stop-color:#f0d49c;stop-opacity:1" />
      <stop offset="100%" style="stop-color:#d4af37;stop-opacity:1" />
    </radialGradient>
  </defs>
  
  <!-- Background -->
  <rect width="100%" height="100%" fill="url(#buzzGrad)"/>
  
  <!-- Border frame -->
  <rect x="10" y="10" width="580" height="380" fill="none" stroke="#2c2c2c" stroke-width="4" stroke-dasharray="15,5" rx="15"/>
  
  <!-- Head silhouette -->
  <ellipse cx="300" cy="180" rx="120" ry="140" fill="url(#headGrad)" stroke="#2c2c2c" stroke-width="3"/>
  
  <!-- Buzz cut hair texture -->
  <g opacity="0.7">
    <!-- Hair dots pattern for buzz cut effect -->
    <circle cx="220" cy="120" r="2" fill="#2c2c2c"/>
    <circle cx="230" cy="115" r="2" fill="#2c2c2c"/>
    <circle cx="240" cy="110" r="2" fill="#2c2c2c"/>
    <circle cx="250" cy="108" r="2" fill="#2c2c2c"/>
    <circle cx="260" cy="107" r="2" fill="#2c2c2c"/>
    <circle cx="270" cy="106" r="2" fill="#2c2c2c"/>
    <circle cx="280" cy="105" r="2" fill="#2c2c2c"/>
    <circle cx="290" cy="104" r="2" fill="#2c2c2c"/>
    <circle cx="300" cy="103" r="2" fill="#2c2c2c"/>
    <circle cx="310" cy="104" r="2" fill="#2c2c2c"/>
    <circle cx="320" cy="105" r="2" fill="#2c2c2c"/>
    <circle cx="330" cy="106" r="2" fill="#2c2c2c"/>
    <circle cx="340" cy="107" r="2" fill="#2c2c2c"/>
    <circle cx="350" cy="108" r="2" fill="#2c2c2c"/>
    <circle cx="360" cy="110" r="2" fill="#2c2c2c"/>
    <circle cx="370" cy="115" r="2" fill="#2c2c2c"/>
    <circle cx="380" cy="120" r="2" fill="#2c2c2c"/>
    
    <!-- Second row -->
    <circle cx="210" cy="130" r="2" fill="#2c2c2c"/>
    <circle cx="225" cy="125" r="2" fill="#2c2c2c"/>
    <circle cx="245" cy="120" r="2" fill="#2c2c2c"/>
    <circle cx="265" cy="117" r="2" fill="#2c2c2c"/>
    <circle cx="285" cy="115" r="2" fill="#2c2c2c"/>
    <circle cx="305" cy="114" r="2" fill="#2c2c2c"/>
    <circle cx="325" cy="115" r="2" fill="#2c2c2c"/>
    <circle cx="345" cy="117" r="2" fill="#2c2c2c"/>
    <circle cx="365" cy="120" r="2" fill="#2c2c2c"/>
    <circle cx="385" cy="125" r="2" fill="#2c2c2c"/>
    <circle cx="390" cy="130" r="2" fill="#2c2c2c"/>
    
    <!-- Third row -->
    <circle cx="200" cy="140" r="2" fill="#2c2c2c"/>
    <circle cx="220" cy="135" r="2" fill="#2c2c2c"/>
    <circle cx="240" cy="130" r="2" fill="#2c2c2c"/>
    <circle cx="260" cy="127" r="2" fill="#2c2c2c"/>
    <circle cx="280" cy="125" r="2" fill="#2c2c2c"/>
    <circle cx="300" cy="124" r="2" fill="#2c2c2c"/>
    <circle cx="320" cy="125" r="2" fill="#2c2c2c"/>
    <circle cx="340" cy="127" r="2" fill="#2c2c2c"/>
    <circle cx="360" cy="130" r="2" fill="#2c2c2c"/>
    <circle cx="380" cy="135" r="2" fill="#2c2c2c"/>
    <circle cx="400" cy="140" r="2" fill="#2c2c2c"/>
  </g>
  
  <!-- Face features -->
  <!-- Eyes -->
  <ellipse cx="270" cy="160" rx="8" ry="6" fill="#2c2c2c"/>
  <ellipse cx="330" cy="160" rx="8" ry="6" fill="#2c2c2c"/>
  
  <!-- Nose -->
  <path d="M 300 175 L 295 185 L 305 185 Z" fill="#2c2c2c" opacity="0.3"/>
  
  <!-- Mouth -->
  <path d="M 285 200 Q 300 210 315 200" stroke="#2c2c2c" stroke-width="2" fill="none"/>
  
  <!-- Title -->
  <text x="300" y="350" font-family="Arial, sans-serif" font-size="32" font-weight="bold" 
        text-anchor="middle" fill="#2c2c2c">Modern Buzz Cut</text>
  
  <!-- Subtitle -->
  <text x="300" y="375" font-family="Arial, sans-serif" font-size="16" 
        text-anchor="middle" fill="#2c2c2c" opacity="0.7">Clean & Professional</text>
</svg>
